PathFileType	4	(X/Y/Z)	39_2_36_p1_0-582.trc
DataRate	CameraRate	NumFrames	NumMarkers	Units	OrigDataRate	OrigDataStartFrame	OrigNumFrames
50.0	50.0	4	27	m	50.0	0	583
Frame#	Time	RHip			RKnee			RAnkle			RBigToe			RSmallToe			RHeel			LHip			LKnee			LAnkle			LBigToe			LSmallToe			LHeel			Neck			Head			Nose			RShoulder			RElbow			RWrist			RThumb			RIndex			RPinky			LShoulder			LElbow			LWrist			LThumb			LIndex			LPinky			
		X1	Y1	Z1	X2	Y2	Z2	X3	Y3	Z3	X4	Y4	Z4	X5	Y5	Z5	X6	Y6	Z6	X7	Y7	Z7	X8	Y8	Z8	X9	Y9	Z9	X10	Y10	Z10	X11	Y11	Z11	X12	Y12	Z12	X13	Y13	Z13	X14	Y14	Z14	X15	Y15	Z15	X16	Y16	Z16	X17	Y17	Z17	X18	Y18	Z18	X19	Y19	Z19	X20	Y20	Z20	X21	Y21	Z21	X22	Y22	Z22	X23	Y23	Z23	X24	Y24	Z24	X25	Y25	Z25	X26	Y26	Z26	X27	Y27	Z27	
0	0.0	0.2947578150313486	0.6153342596132293	0.47207084953551826	0.26860158420569646	0.7371076414775624	0.9284983139159375	0.22534676756437302	0.8093085271641075	1.3100351086636504	0.21045450930809154	0.6497287585509176	1.3462924278171309	0.2809873983410494	0.669692186088728	1.3546101532186907	0.1939155172193707	0.9151213560644732	1.3795343375053282	0.09343398561600551	0.63354245114379	0.47371216433750524	0.04953188644630323	0.7624181605891743	0.9175484827917308	0.027478523138879756	0.8368747969301221	1.3036262800736005	0.058201038092010035	0.6417617424957699	1.325283701622358	3.825150332365327e-05	0.6947558406442396	1.336341374251013	0.0358661684907117	0.8696529719764703	1.353409949780854	0.24541198900584768	0.5757611465903663	-0.051554972652507795	0.26129592681920755	0.5220960997136255	-0.2909319331939437	0.24732106672141208	0.4482209515327583	-0.16146846587477823	0.38548119207629117	0.6010642241442082	0.05896864687434276	0.3580330420873157	0.5478862984691552	0.3062103119220682	0.2077657849389012	0.4398304044382228	0.4729296979073076	0.14916047339716715	0.39420687631582213	0.580119747651359	0.1507793870555116	0.3966741940679854	0.5815995082641504	0.1570455732794251	0.4325937744393518	0.5820290259337328	0.07743514640180546	0.6272388290920365	0.02588764593863557	0.055212728939386245	0.5887103489583214	0.2887004292644203	0.10859876426138529	0.47113827824770843	0.5011684383211977	0.1795046150089452	0.3886041029870254	0.5614222363910013	0.16726757649956708	0.4130136322141778	0.5861603417901219	0.15187712891031374	0.4262939802243431	0.5933044367047248
1	0.02	0.2941008074760343	0.6150282262713915	0.47960127204778324	0.26831130751204013	0.7245486411674645	0.9284449895633773	0.23000450850635282	0.8119905962985886	1.310625327146268	0.213037857701425	0.6643809660117231	1.3527189282323293	0.2809546891523965	0.6709971391444459	1.3548647489768157	0.20068349433554847	0.9315381942446548	1.3816429373641979	0.09341672896310524	0.6338081761362032	0.47419452545461055	0.04968543770259205	0.7625905751501053	0.9179471031553688	0.027551169246274734	0.8369687816203896	1.3036503487469244	0.058266923143834574	0.6414745894656008	1.325130462667026	0.0001113041186653584	0.6947538647646242	1.3362924824922406	0.04199650103132161	0.8727767075987141	1.34970462880707	0.24542332463410596	0.5755704070696123	-0.051582930681815777	0.26132767336822865	0.5219878277610074	-0.29100433238264184	0.24958915665730938	0.46012303563337026	-0.16168230631380787	0.3854925507592974	0.5992201817102726	0.0514387347954382	0.3575938305906031	0.5461993246469469	0.3023931344341084	0.20706587951928807	0.4400371503190346	0.47641661178187095	0.15372105030444513	0.39638359863475353	0.5810185376173018	0.1556861815761482	0.40909204822582956	0.5868675745204031	0.15516248635035337	0.43233677714917174	0.5764529514902661	0.07738545040421396	0.6270180128359903	0.025648988938800146	0.05411032037359461	0.5783085675753772	0.2874307822861057	0.10939883711017362	0.4707170897042235	0.497791147578909	0.1752295275462491	0.4034471355338512	0.5647485458325642	0.16765998861642645	0.41796350106102353	0.5911367253477724	0.15457645168236994	0.45643310827633254	0.6047604831301879
2	0.04	0.29409966048044134	0.6148770172522081	0.47975516678180663	0.27168519975392796	0.7396683389110132	0.9334034000903317	0.22995165728654748	0.8119300945711404	1.310848617669978	0.21030053107854607	0.6505370159451781	1.3464848446280577	0.28113937988774756	0.6706878002228567	1.3547870488826155	0.20131033499637993	0.9340702377462925	1.3870492808514652	0.08773949558172199	0.6500375752989471	0.48196399175335813	0.04979063295564229	0.7625064365641493	0.9179428640026612	0.027491708932362705	0.8370689239301179	1.3036744225871884	0.0582307310200002	0.6418161905882025	1.3253226340676214	4.520416287166229e-05	0.6949622429141772	1.3364265847794694	0.04013811190801284	0.8707256810739664	1.3544571798355511	0.24540147750382132	0.5754759203441896	-0.051638758445957715	0.26130043092637817	0.5220343085527669	-0.29098938954439185	0.24726312695005553	0.4486909812209705	-0.1614525492638958	0.38528498999925165	0.6005243455689505	0.05884569251744022	0.35785825417328665	0.5473387420997815	0.3062016154532989	0.2070352875862357	0.4401106118551839	0.47648313837390105	0.1511295405149352	0.3964852693769603	0.5811131899551144	0.14868776379116622	0.4207614433808687	0.5840977173792824	0.15537932210467834	0.4329294069895393	0.5768898309289587	0.07538126402536612	0.6140763545805008	0.02511307020744806	0.05411709915944823	0.5785553895384652	0.2875763550691636	0.10962703087177111	0.47208642146994756	0.5014257587785556	0.17667986419221227	0.41553735122197344	0.5711899192557667	0.16800751670387787	0.4193190560150333	0.5915456065594266	0.15481071874027233	0.4574525349779717	0.6050864803993922
3	0.06	0.29417491496118425	0.6159967820423791	0.4760800361048564	0.2717090812435827	0.7396961546854569	0.9336225038301266	0.2299677354779334	0.812083376682204	1.310937080363337	0.21030241256676976	0.6510236607867133	1.3465137274122956	0.27609207973294153	0.6870742893084207	1.36246842968618	0.19782955654384313	0.9200217236703541	1.3766203203077425	0.09164724911999847	0.6521057949271394	0.48252110168195006	0.04964695806714199	0.7628031254147791	0.9180279742560421	0.02852452294883892	0.8339429792653983	1.2926816491726816	0.05955199276371888	0.6411650919249081	1.3213781684880341	5.141068649337427e-05	0.6953973422108348	1.3365560959571807	0.03685420657822351	0.8668171270695217	1.3431082809056771	0.24539435334437135	0.5758430712393877	-0.05528650204197962	0.26126426081001336	0.5219703839623515	-0.2908400307755373	0.24737729297699462	0.4485199460076864	-0.16142217598683356	0.38558316830609307	0.6005644077052772	0.05511097795695786	0.3579650033910343	0.5483195415946321	0.30241904773952305	0.21088553195490017	0.4414730387378418	0.47660175832165763	0.15164419392999884	0.39674287660514285	0.581037403548244	0.14943284507150764	0.42101125884791707	0.583960001421441	0.15601083942131322	0.4329755032720836	0.5804214935576016	0.07780450499274771	0.6268817253811986	0.022257884237249455	0.05394655655801108	0.5767727475786855	0.27919415105105105	0.10943848881279754	0.4704254141104534	0.49754213088408716	0.1702664220266261	0.4012229916817168	0.5679408854270622	0.1677417412766977	0.4164999841676653	0.590669822703842	0.15430251812288534	0.4561054167094886	0.6005627032937525
